<svg width="240" height="240" viewBox="0 0 240 240" fill="none" xmlns="http://www.w3.org/2000/svg">
<path d="M150 120C150 136.569 136.569 150 120 150C112.338 150 107.532 147.182 103.171 141.91C98.2213 135.927 94.301 127.344 89.1101 115.876C85.6925 108.326 87.2154 102.858 91.2868 98.7868C96.004 94.0695 105.527 90 120 90C134.208 90 140.865 93.9031 144.329 98.0902C148.114 102.665 150 109.822 150 120Z" fill="#FFCC11"/>
<path fill-rule="evenodd" clip-rule="evenodd" d="M120 180C153.137 180 180 153.137 180 120C180 102.41 175.148 87.548 165.819 77.1976C156.65 67.0247 142.07 60 120 60C97.7164 60 80.4769 67.1703 70.0736 77.5736C59.8993 87.7479 55.5722 101.61 59.6813 117.496C64.4541 135.947 71.7284 151.761 81.6806 162.802C91.3797 173.563 103.758 180 120 180ZM160 120C160 142.091 142.091 160 120 160C98.1034 160 90.1406 142.406 80.2641 120.584L80 120C70 97.9086 87.9086 80 120 80C152.091 80 160 97.9086 160 120Z" fill="#FFCC11"/>
<path fill-rule="evenodd" clip-rule="evenodd" d="M120 210C168.385 210 200.606 170.986 210.16 118.218C214.533 94.0647 207.083 74.9615 191.397 60.3586C175.277 45.3522 149.935 34.706 118.485 29.8845C88.4682 25.2828 64.3398 33.3809 48.8604 48.8604C33.3809 64.3398 25.2828 88.4682 29.8845 118.485C34.677 149.746 45.2298 172.509 60.1104 187.39C74.8127 202.092 94.6319 210 120 210ZM120 190C158.66 190 190 158.66 190 120C190 81.3401 168.66 50 120 50C71.3401 50 40 81.3401 50 120C60 158.66 81.3401 190 120 190Z" fill="#FFCC11"/>
<path fill-rule="evenodd" clip-rule="evenodd" d="M120 240C185.619 240 228.913 186.541 238.814 120.596C248.715 54.6507 195.52 11.142 120 1.19166C44.4795 -8.75869 -8.71542 44.7004 1.18577 120.596C11.087 196.491 54.3807 240 120 240ZM120 220C175.228 220 210 175.228 220 120C230 64.7715 185.228 30 120 20C54.7715 9.99998 9.99998 54.7715 20 120C30 185.228 64.7715 220 120 220Z" fill="#FFCC11"/>
</svg>
